<svg width="100" height="80" viewBox="0 0 100 80" fill="none" xmlns="http://www.w3.org/2000/svg">
  <!-- Lotus Central Petal -->
  <path d="M50 68C50 68 44 65 41 57C38 49 42 42 50 32C58 42 62 49 59 57C56 65 50 68 50 68Z" stroke="#C5A880" stroke-width="2.5" stroke-linecap="round" stroke-linejoin="round"/>
  
  <!-- Top Center Tip -->
  <path d="M50 32C50 32 42 22 50 8C58 22 50 32 50 32Z" stroke="#C5A880" stroke-width="2.5" stroke-linecap="round" stroke-linejoin="round"/>
  
  <!-- Upper Left Petal -->
  <path d="M41 57C34 52 29 42 24 22C34 27 39 42 41 52" stroke="#C5A880" stroke-width="2.5" stroke-linecap="round" stroke-linejoin="round"/>
  
  <!-- Upper Right Petal -->
  <path d="M59 57C66 52 71 42 76 22C66 27 61 42 59 52" stroke="#C5A880" stroke-width="2.5" stroke-linecap="round" stroke-linejoin="round"/>
  
  <!-- Lower Left Wing -->
  <path d="M35 62C22 62 12 59 4 67C12 72 22 75 42 69" stroke="#C5A880" stroke-width="2.5" stroke-linecap="round" stroke-linejoin="round"/>
  
  <!-- Lower Right Wing -->
  <path d="M65 62C78 62 88 59 96 67C88 72 78 75 58 69" stroke="#C5A880" stroke-width="2.5" stroke-linecap="round" stroke-linejoin="round"/>
  
  <!-- Bottom Center Loop -->
  <path d="M50 69C45 73 45 79 50 79C55 79 55 73 50 69Z" stroke="#C5A880" stroke-width="2.5" stroke-linecap="round" stroke-linejoin="round"/>
</svg>
