<svg xmlns="http://www.w3.org/2000/svg" viewBox="0 0 560 160" fill="none">

  <!-- ══ LOTUS ICON (centered, top) ══ -->
  <g transform="translate(220, 4)">

    <!-- Center tall petal -->
    <path d="M60 8 C52 20 48 34 48 46 C48 58 53 66 60 70 C67 66 72 58 72 46 C72 34 68 20 60 8 Z"
      stroke="#C5A880" stroke-width="2.2" stroke-linecap="round" stroke-linejoin="round"/>
    <!-- Center inner leaf -->
    <path d="M60 28 C57 35 56 41 56 47 C56 53 57.5 58 60 61 C62.5 58 64 53 64 47 C64 41 63 35 60 28 Z"
      stroke="#C5A880" stroke-width="1.6" stroke-linecap="round" stroke-linejoin="round"/>

    <!-- Upper-left petal -->
    <path d="M60 46 C54 36 44 28 30 24 C28 36 32 48 40 56 C47 62 55 64 60 62"
      stroke="#C5A880" stroke-width="2.2" stroke-linecap="round" stroke-linejoin="round"/>
    <!-- Upper-left inner leaf -->
    <path d="M52 38 C48 42 46 47 46 52 C49 51 52 48 54 44 C55.5 41 55.5 38.5 54 37 Z"
      stroke="#C5A880" stroke-width="1.6" stroke-linecap="round" stroke-linejoin="round"/>

    <!-- Upper-right petal -->
    <path d="M60 46 C66 36 76 28 90 24 C92 36 88 48 80 56 C73 62 65 64 60 62"
      stroke="#C5A880" stroke-width="2.2" stroke-linecap="round" stroke-linejoin="round"/>
    <!-- Upper-right inner leaf -->
    <path d="M68 38 C72 42 74 47 74 52 C71 51 68 48 66 44 C64.5 41 64.5 38.5 66 37 Z"
      stroke="#C5A880" stroke-width="1.6" stroke-linecap="round" stroke-linejoin="round"/>

    <!-- Lower-left spread petal -->
    <path d="M48 62 C40 58 28 56 14 60 C16 70 26 78 42 78 C50 78 56 74 60 70"
      stroke="#C5A880" stroke-width="2.2" stroke-linecap="round" stroke-linejoin="round"/>
    <!-- Lower-left inner leaf -->
    <path d="M42 64 C36 65 31 68 28 72 C32 73 37 72 41 70 C44 68 45 65 43.5 63 Z"
      stroke="#C5A880" stroke-width="1.6" stroke-linecap="round" stroke-linejoin="round"/>

    <!-- Lower-right spread petal -->
    <path d="M72 62 C80 58 92 56 106 60 C104 70 94 78 78 78 C70 78 64 74 60 70"
      stroke="#C5A880" stroke-width="2.2" stroke-linecap="round" stroke-linejoin="round"/>
    <!-- Lower-right inner leaf -->
    <path d="M78 64 C84 65 89 68 92 72 C88 73 83 72 79 70 C76 68 75 65 76.5 63 Z"
      stroke="#C5A880" stroke-width="1.6" stroke-linecap="round" stroke-linejoin="round"/>

  </g>

  <!-- ══ BRAND NAME ══ -->
  <text
    x="280"
    y="118"
    font-family="'Playfair Display', 'Georgia', 'Times New Roman', serif"
    font-size="22"
    font-weight="400"
    letter-spacing="7"
    text-anchor="middle"
    fill="#1B1A19">SAMSARA SALONS WELLNESS &amp; YOGA</text>

  <!-- ══ GOLD UNDERLINE ══ -->
  <line x1="20" y1="130" x2="540" y2="130" stroke="#C5A880" stroke-width="1"/>

</svg>
